Coordinates
version=1
nRows=11
nColumns=36
inDegrees=yes

Units are S.I. units (second, meters, Newtons, ...)
If the header above contains a line with 'inDegrees', this indicates whether rotational values are in degrees (yes) or radians (no).

endheader
time	pelvis_tilt	pelvis_list	pelvis_rotation	pelvis_tx	pelvis_ty	pelvis_tz	hip_flexion_r	hip_adduction_r	hip_rotation_r	knee_angle_r	knee_angle_r_beta	ankle_angle_r	subtalar_angle_r	mtp_angle_r	hip_flexion_l	hip_adduction_l	hip_rotation_l	knee_angle_l	knee_angle_l_beta	ankle_angle_l	subtalar_angle_l	mtp_angle_l	lumbar_extension	lumbar_bending	lumbar_rotation	arm_flex_r	arm_add_r	arm_rot_r	elbow_flex_r	pro_sup_r	arm_flex_l	arm_add_l	arm_rot_l	elbow_flex_l	pro_sup_l
      1.31666670	     -7.17013357	     -0.79488388	     -4.25643214	     -1.02943243	      1.33740301	     -0.06519104	      6.66705501	      1.47940629	      5.99295313	      5.06025549	      0.08831812	      6.43408754	     -1.85944328	     -7.49999987	      5.13764105	      0.07108461	      3.36182505	      4.09888290	      0.07153900	      3.80021732	    -12.19962836	     -7.49999987	     -2.81605128	      1.02943739	      4.11580745	    -10.64147324	     -7.66408256	     -7.57037158	     35.60399634	     79.94831869	     -5.18208217	     -5.71139419	      5.64922842	     27.92038485	     77.29822180
      1.33333330	     -7.49346773	     -0.77150212	     -4.23421610	     -1.02889824	      1.33700843	     -0.06565338	      6.84814337	      1.46504412	      5.93062734	      4.84930527	      0.08463634	      6.38754488	     -1.77343288	     -7.49999987	      5.48145315	      0.03364121	      3.26473306	      4.09213265	      0.07142119	      3.76796615	    -12.11159691	     -7.49999987	     -2.75673394	      0.94773284	      4.13991877	    -11.00534824	     -7.67396404	     -7.53189768	     35.95000932	     79.64473772	     -5.53256808	     -5.84692549	      5.69218408	     28.18955539	     77.02844042
      1.35000000	     -7.89963061	     -0.73240456	     -4.19622027	     -1.03560871	      1.33307875	     -0.06939460	      7.40271883	      1.39326163	      5.86941502	      4.89532116	      0.08543947	      6.29219375	     -1.98141133	     -7.49999987	      6.16188373	      0.13610541	      3.42120201	      4.34105985	      0.07576579	      3.63841315	    -12.62656389	     -7.49999987	     -2.81184847	      0.89660728	      4.54443988	    -11.13552964	     -7.99275956	     -6.81693133	     35.91441174	     79.56793900	     -4.77666717	     -5.84050345	      6.82745419	     27.12440547	     77.20455573
      1.36666670	     -8.14682673	     -0.70224650	     -4.19116781	     -1.04226964	      1.33363399	     -0.06446793	      7.76341371	      1.46574701	      6.00692515	      4.68739432	      0.08181046	      6.39207072	     -1.89508289	     -7.49999987	      6.79168413	      0.11737513	      3.39951468	      4.62502574	      0.08072193	      3.63481636	    -12.76122918	     -7.49999987	     -3.31283817	      0.68865546	      4.59331996	    -10.84101927	     -8.00171637	     -6.82424924	     36.11538309	     79.66181069	     -4.43793026	     -5.98244913	      6.84360105	     27.23273949	     77.30478114
      1.38333330	     -8.41858139	     -0.68527561	     -4.02487068	     -1.03502605	      1.33330625	     -0.06968362	      7.99979641	      1.36882418	      5.97363417	      4.53418500	      0.07913646	      6.33056482	     -1.90115531	     -7.49999987	      7.21382408	      0.22421770	      3.49373912	      4.77306517	      0.08330570	      3.62233452	    -12.76177482	     -7.49999987	     -3.61477094	      0.65264756	      4.63078667	    -10.77224183	     -8.18788286	     -6.86116735	     36.24199383	     79.71808992	     -4.31864981	     -5.96014011	      6.86189021	     27.26837900	     77.37016099
      1.40000000	     -9.11787455	     -0.62931612	     -3.91075863	     -1.04168713	      1.33293290	     -0.06492977	      8.89483923	      1.38821806	      6.07995997	      4.54244433	      0.07928061	      6.37029568	     -2.04269496	     -7.49999987	      8.44720334	      0.27634751	      3.67185126	      5.39019701	      0.09407669	      3.72654887	    -13.19220123	     -7.49999987	     -3.44763345	      0.59065575	      4.73720221	    -11.03769165	     -8.29976210	     -6.75256132	     37.19941064	     80.30875406	     -4.33648985	     -6.06407495	      6.99874872	     27.22555659	     78.01066622
      1.41666670	     -9.43237229	     -0.57435963	     -3.72461496	     -1.04160344	      1.33254534	     -0.06492520	      9.08351340	      1.33631819	      6.43286296	      4.17295761	      0.07283185	      6.21865811	     -2.26095937	     -7.49999987	      9.11633071	      0.33378298	      3.81898335	      5.78674258	      0.10099771	      3.72411165	    -13.12986320	     -7.49999987	     -3.64084683	      0.49713942	      4.87989892	    -11.13344107	     -8.21840126	     -7.51157587	     37.58712145	     83.65373841	     -4.11833485	     -6.16365046	      7.00996779	     26.97359751	     81.85022948
      1.43333330	     -9.74588621	     -0.51996468	     -3.48325286	     -1.04109152	      1.33227675	     -0.06559165	      9.24465724	      1.23893396	      6.54968554	      3.87247788	      0.06758749	      6.13030583	     -2.21008800	     -7.49999987	      9.57402455	      0.38784969	      3.85439440	      5.90023662	      0.10297856	      3.68500352	    -12.98126655	     -7.49999987	     -3.82012158	      0.37535398	      4.82024542	    -11.12210892	     -8.23887838	     -7.49988298	     38.00440550	     83.19438038	     -4.27134160	     -6.23367179	      6.83549144	     27.07300718	     81.38370995
      1.45000000	    -10.23310819	     -0.49645284	     -3.47707109	     -1.04087120	      1.33154465	     -0.06529966	      9.84104580	      1.28736971	      6.75269701	      3.96820756	      0.06925829	      6.26142236	     -1.91458186	     -7.49999987	     10.25999301	      0.33397865	      3.85551562	      6.24635637	      0.10901948	      3.84037198	    -12.66102339	     -7.49999987	     -3.83205357	      0.33532218	      4.77583756	    -11.32552178	     -8.40763672	     -7.53470586	     38.64689738	     82.59184595	     -4.79609773	     -6.46256297	      6.73231920	     27.51291505	     80.80041942
      1.46666670	    -10.42767036	     -0.53664446	     -3.36116192	     -1.04052119	      1.33164128	     -0.06585405	     10.10026070	      1.34566048	      7.25535410	      4.02799884	      0.07030184	      6.08848423	     -2.28194617	     -7.49999987	     10.47587004	      0.26018525	      3.93279608	      6.33095076	      0.11049594	      3.74720250	    -12.63654268	     -7.49999987	     -4.15166898	      0.38857705	      4.63793831	    -11.20312052	     -8.55426896	     -7.70758449	     38.25436531	     82.45254785	     -4.76283162	     -6.41256780	      6.32459604	     26.59114731	     80.62950154
      1.48333330	    -10.63428367	     -0.51121348	     -3.28436408	     -1.04638440	      1.33154629	     -0.06969067	     10.41638754	      1.28377447	      7.40544620	      4.04967490	      0.07068016	      6.04004019	     -2.20534129	     -7.49999987	     10.72100255	      0.31925493	      3.95539243	      6.24111738	      0.10892805	      3.77464717	    -12.61662572	     -7.49999987	     -4.60035098	      0.43880972	      4.54639675	    -11.35129964	     -8.83121127	     -7.78509125	     38.16978399	     82.45751156	     -4.83095772	     -6.42387095	      6.31630289	     26.52495712	     80.64290490
